<?xml version="1.0" encoding="UTF-8"?>
<svg id="Layer_1" data-name="Layer 1" xmlns="http://www.w3.org/2000/svg" xmlns:xlink="http://www.w3.org/1999/xlink" viewBox="0 0 385.36 379.26">
  <defs>
    <style>
      .cls-1 {
        clip-path: url(#clippath);
      }

      .cls-2 {
        fill: none;
      }

      .cls-2, .cls-3 {
        stroke-width: 0px;
      }

      .cls-3 {
        fill: #4d4d4d;
      }
    </style>
    <clipPath id="clippath">
      <rect class="cls-2" x=".02" y=".22" width="385.33" height="379.04"/>
    </clipPath>
  </defs>
  <g class="cls-1">
    <g id="Group_3791" data-name="Group 3791">
      <path id="Path_2885" data-name="Path 2885" class="cls-3" d="m308.54,131.95c9.02,2.8,15.86,10.2,17.96,19.4,5.77,17.5.55,36.75-13.28,48.93-2.98,1.7-6.1,3.15-9.32,4.34-1.17.58-2.75,1.55-2.99,2.59-6.53,28.16-22.1,53.4-44.33,71.87-.18.16-.24.48-.82,1.77,2.31,1.86,4.84,3.43,7.53,4.68,18.98,6.31,38.17,12.21,57.11,18.46,32.32,8.91,57.12,34.88,64.54,67.57,1.35,5.4-.4,7.55-5.93,7.67h-2.01c-10.18,0-10.04,0-13.36-9.84-6.71-21.1-23.15-37.68-44.19-44.57-19.85-7.21-40.01-13.5-60.14-19.93-11.54-3.74-24.12-2.57-34.77,3.23-9.14,4.7-18.32,9.32-27.6,14.06,6.53,3.74,13.28,7.57,19.97,11.47,7.65,4.46,8.36,11.65.96,16.51-6.34,3.2-9.21,10.7-6.63,17.32.62,2.43,1.1,4.89,1.43,7.37.46,2.67-.34,4.4-3.37,4.38h-33.04c-3.05,0-3.84-1.81-3.43-4.4.56-3.58,1.06-7.17,2.01-10.67,1.51-4.55-.41-9.53-4.58-11.89-1.14-.76-2.25-1.65-3.33-2.51-4.19-2.5-5.56-7.93-3.06-12.12.94-1.58,2.36-2.83,4.05-3.57,6.21-3.68,12.53-7.19,18.8-10.79.7-.4,1.37-.86,1.81-1.17-9.06-4.6-18.08-9.08-27.14-13.76-11.15-6.07-24.33-7.19-36.34-3.07-18.62,6.03-37.28,12.05-55.82,18.4-23.79,6.87-42.2,25.75-48.49,49.7-.66,3.44-3.71,5.89-7.21,5.79-2.63,0-5.28.12-7.93,0-4.46-.16-6.29-2.49-5.3-6.83,4.44-20.77,16.13-39.29,32.98-52.23,12.81-9.15,27.21-15.84,42.46-19.73,15.52-4.81,30.99-9.8,46.4-14.96,2.42-1.03,4.7-2.37,6.77-4-4.6-5.22-8.56-9.86-12.7-14.36-15.34-16.47-26.1-36.67-31.22-58.59-.51-2.81-2.32-5.22-4.88-6.49-8.77-5.42-14.74-14.41-16.31-24.61-3.98-12.74-1.47-26.62,6.71-37.16,3.38-3.63,4.49-8.82,2.89-13.52-6.65-29.58,2.26-60.51,23.62-82.02C125.74,12.77,167.95-3.57,210.69.66c17.47.57,34.45,5.91,49.11,15.43,9,6.17,16.19,14.62,20.85,24.49.68,1.58,1.89,2.88,3.41,3.68,17.69,6.55,30.14,22.56,32.14,41.32,2.73,15.89.02,32.25-7.71,46.4m-187.96,75.97h0v22.54c-.87,17.19,11.33,32.28,28.32,35.01,28.07,5.35,56.88,5.52,85.01.5,16.92-1.71,30.04-15.55,30.85-32.54.44-17.38,0-34.75.24-52.13.5-3.14-1.65-6.1-4.79-6.6-.3-.05-.6-.07-.89-.07-9.34-1.27-18.66-2.85-28.12-3.9-34.75-3.77-69.85-2.49-104.23,3.8-6.03,1.06-6.55,1.85-6.55,8.03v25.41m74.8-117.55l-1.47-.88c-32.28,8.65-62.62,23.36-89.41,43.35-1.98,3.09-2.41,6.92-1.17,10.36,4.4,5.79,8.84,11.53,13.24,17.25,50.41-10.43,102.42-10.43,152.82,0,1.76-4.03,4.11-7.77,6.97-11.11,5.58-5.07,8.1-12.69,6.65-20.09-.16-1.79,0-3.62,0-5.42.11-8.4-2.51-16.62-7.47-23.4-6.16-7.39-13.88-13.31-22.62-17.34-2.05-1.5-4.9-1.2-6.59.7-14.96,13.01-32.74,22.35-51.95,27.28-2.15.56-4.44.23-6.35-.92-2.35-1.85-.34-4.14.76-6.27,2.33-4.44,4.38-9,6.55-13.52m85.45,110.88h1c.2-.92.48-1.85.6-2.77,1.12-8.62,4.94-14.06,14.9-13.84,3.94.16,7.48-2.41,8.56-6.21,1.54-5,2.47-10.17,2.77-15.39.19-4.84-3.26-9.06-8.03-9.84-4.66-.9-9.66-1.85-13.08,3.21-4.84,6.14-7.29,13.83-6.87,21.63.7,7.65.14,15.43.14,23.14m-176.95-.18h1.08c0-7.29-.16-14.58,0-21.87.38-9.27-3.22-18.27-9.88-24.73-4.1-4.22-7.47-3.62-10.49,1.33-.8,1.29-1.34,2.73-1.59,4.24-1.43,7.02-.16,14.32,3.56,20.45,1.46,2.29,3.6,4.06,6.13,5.06,5.92,1.23,10.24,6.35,10.45,12.39.16,1.06.41,2.11.74,3.13m56.71,83.34c1.33,1.16,2.76,2.22,4.26,3.15,8.6,4.5,17.21,8.96,25.95,13.2,1.48.55,3.12.49,4.56-.16,8.34-4.02,16.61-8.34,24.83-12.63,1.77-1.07,3.46-2.26,5.06-3.56h-64.66Z"/>
      <path id="Path_2886" data-name="Path 2886" class="cls-3" d="m192.27,241.38h-37.08c-4.64,0-7.25-2.01-7.23-5.6s2.59-5.58,7.25-5.6h74.99c4.7,0,7.23,2.01,7.23,5.6s-2.59,5.58-7.25,5.58h-37.9"/>
      <path id="Path_2887" data-name="Path 2887" class="cls-3" d="m192.29,211.39h-37.5c-4.3,0-6.87-2.21-6.83-5.58s2.65-5.56,6.91-5.56h75.77c5.08,0,8.03,3.52,6.39,7.63-1.03,2.53-3.69,4.01-6.39,3.56h-38.35"/>
    </g>
  </g>
</svg>