<?xml version="1.0" encoding="UTF-8"?>
<svg id="Layer_1" data-name="Layer 1" xmlns="http://www.w3.org/2000/svg" xmlns:xlink="http://www.w3.org/1999/xlink" viewBox="0 0 635.7 543.64">
  <defs>
    <style>
      .cls-1 {
        clip-path: url(#clippath);
      }

      .cls-2 {
        fill: none;
      }

      .cls-2, .cls-3 {
        stroke-width: 0px;
      }

      .cls-3 {
        fill: #4d4d4f;
      }
    </style>
    <clipPath id="clippath">
      <rect class="cls-2" width="635.7" height="543.64"/>
    </clipPath>
  </defs>
  <g class="cls-1">
    <g id="Group_3796" data-name="Group 3796">
      <path id="Path_2888" data-name="Path 2888" class="cls-3" d="M315.82,543.04c-93,0-186.04-.89-279.01.57C10.22,544.03-.6,538.22,0,509.03,1.81,423.35,0,337.68,1.49,252.23c1.21-13.72,8.31-26.24,19.45-34.33C141.87,146.44,263.87,76.82,385.15,5.93c16.69-9.77,26.05-8.06,34.9,9.08,11.2,21.51,25.38,41.47,36.01,63.3,9.27,19.26,20.28,21.2,40.2,15.87,68.09-18.18,52.93-25.1,73.43,43.12,5.46,18.18,10.6,36.55,14.37,55.15,4.09,20.09,9.3,36.17,35.7,33.76,4.57-.41,14.95,13.58,15.01,21.01.98,90.88,0,181.79.86,272.66.22,24.88-14.88,23.26-31.32,23.26-96.17-.13-192.34-.13-288.53,0M613.67,246.45H23.1v275.42h590.61l-.03-275.42ZM227.89,217.9l.41,5.33h302.59c-1.91-9.39-7.8-17.5-16.15-22.21-18.18-11.14-36.59-21.89-55.31-32.05-6.19-4.49-13.65-6.87-21.29-6.79-70.25,17.71-140.19,36.78-210.22,55.5M109.85,217.93l2.25,7.81c11.17-2.16,22.53-3.65,33.51-6.57,93.73-24.97,187.5-49.75,280.98-75.61,22.91-6.35,42.3-11.84,53.28,17.8,4.17,8.67,12.37,14.7,21.89,16.09,36.11-4.73,47.6,19.2,58.61,45.34.25.63,3.81,0,11.3-.51l-32.24-119.59L109.85,217.93M102.3,192.54l3.4,7.2c11.04-5.36,22.4-10.15,33.03-16.21,57.81-32.9,115.72-65.68,172.9-99.7,15.68-9.33,25.8-12.22,40.27,3.55,11.2,9.23,24.97,14.77,39.44,15.87,18.89,1.56,37.87,1.77,56.8.63l-47.98-83.01L102.33,192.61M215.2,162.59l2.67,5.71,150.06-40.27,1.43-7.62c-16.28-6.16-36.49-21.67-48.14-16.79-36.53,17.44-71.95,37.13-106.04,58.96"/>
      <path id="Path_2889" data-name="Path 2889" class="cls-3" d="M599.24,446.61c-31.71.58-58.44,23.8-63.46,55.12-.79,4.63-14.91,9.9-22.88,9.93-129.91.6-259.81.79-389.72-.41-8.76,0-18.05-11.52-25.96-19.04-13.77-12.91-24.43-31.41-40.46-39-13.19-3.68-21.66-16.51-19.86-30.08.7-17.93.73-35.92,0-53.94-1.21-27.89-4.28-55.02,35.28-60.61,10.82-4.26,18.88-13.52,21.61-24.81,4.41-26.53,19.36-29.32,42.33-29.1,122.5,1.06,245.02,1.12,367.54.19,20.28,0,32.05,2.67,38.46,25.8,6.12,15.27,18.58,27.12,34.14,32.46,20.43,6.03,23.61,16.53,23.23,34.11-.7,32.59-.19,65.21-.19,99.16M317.28,492.3c53.94,0,107.88-.73,161.61.35,23.39.48,42.58.54,51.21-28.08,3.36-11.07,18.85-18.72,29.35-27.23,5.55-4.47,17.42-7.04,17.74-11.17,2.79-26.2,3.02-52.61.7-78.85-.98-8.19-17.9-13.83-26.27-21.93-10.84-8.26-19.81-18.72-26.34-30.68-6.6-17.74-17.01-20.34-33.44-20.24-107.76.55-215.51.55-323.24,0-27.38,0-55.21-4.12-64.6,32.24-2.48,7.14-8.06,12.78-15.17,15.36-37.22,8.95-31.73,37.38-32.27,64.48-.67,25.19-1.59,47.34,29.7,56.93,11.55,5.44,20.27,15.48,24.05,27.67,6.16,20.21,18.75,21.48,35.86,21.26,57.12-.67,114.23-.25,171.12-.25"/>
      <path id="Path_2890" data-name="Path 2890" class="cls-3" d="M317.78,470.54c-47.58-.59-86.1-38.86-87.01-86.43.15-48.19,39.34-87.14,87.53-86.99s87.14,39.34,86.99,87.53c-1.1,47.61-39.9,85.68-87.51,85.9M385.34,382.71c-.29-37.13-30.62-67-67.76-66.71s-67,30.62-66.71,67.76c0,.78.03,1.57.06,2.35,1.59,37.1,32.95,65.89,70.05,64.3,36.19-1.55,64.64-31.48,64.36-67.7"/>
      <path id="Path_2891" data-name="Path 2891" class="cls-3" d="M162.24,345.45c19.91,1.46,34.95,18.66,33.73,38.58.17,21.03-16.73,38.22-37.76,38.39-1.25.01-2.5-.04-3.74-.15-20.31-.48-36.37-17.33-35.89-37.64.02-.9.08-1.8.16-2.69.89-21.17,18.78-37.6,39.95-36.71,1.19.05,2.38.16,3.56.32M158.08,357.67c-8.69,11.49-17.83,18.25-17.61,24.72.22,6.47,9.27,13.52,14.47,20.28,6.98-6.35,17.2-11.49,19.74-19.23,1.59-4.89-8.28-13.55-16.6-25.73"/>
      <path id="Path_2892" data-name="Path 2892" class="cls-3" d="M517.94,386.35c-.99,20.51-18.15,36.5-38.68,36.05-21.4.26-38.95-16.87-39.21-38.27-.01-.87,0-1.73.06-2.6.51-20.53,17.56-36.77,38.09-36.26.74.02,1.47.06,2.21.12,21.39.65,38.2,18.51,37.55,39.9-.01.36-.03.71-.05,1.07M481.36,409.65c7.08-12.06,15.33-19.8,14.44-26.3-.89-6.5-10.79-12.09-16.75-18.05-6.35,6.92-16.09,13.2-17.55,21.01-.95,5.14,10.15,12.69,19.86,23.35"/>
    </g>
  </g>
</svg>