<?xml version="1.0" encoding="UTF-8"?>
<svg id="Layer_1" data-name="Layer 1" xmlns="http://www.w3.org/2000/svg" xmlns:xlink="http://www.w3.org/1999/xlink" viewBox="0 0 422.52 514.81">
  <defs>
    <style>
      .cls-1 {
        clip-path: url(#clippath);
      }

      .cls-2 {
        fill: none;
      }

      .cls-2, .cls-3 {
        stroke-width: 0px;
      }

      .cls-3 {
        fill: #4d4d4f;
      }
    </style>
    <clipPath id="clippath">
      <rect class="cls-2" x=".23" y=".34" width="422.18" height="514.47"/>
    </clipPath>
  </defs>
  <g id="Group_3800" data-name="Group 3800">
    <g class="cls-1">
      <g id="Group_3799" data-name="Group 3799">
        <path id="Path_2893" data-name="Path 2893" class="cls-3" d="m311.84,166.47h86.35c19.26,0,24.29,5.07,24.33,24.52v134.48c0,17.61-5.37,22.98-22.79,23.05h-87.7v117.21c2.45,24.49-15.42,46.33-39.91,48.78-2.85.28-5.71.29-8.56.03-71.41.13-142.82.13-214.23,0-24.43,2.67-46.39-14.97-49.06-39.39-.34-3.07-.35-6.16-.05-9.23V49.18C-2.24,24.61,15.68,2.69,40.25.22c3.41-.34,6.85-.29,10.25.15h211.3c24.71-2.95,47.13,14.68,50.08,39.39.44,3.65.42,7.35-.04,11v115.75M16.78,89.99v325.77h278.84v-67.17h-121.38c-20.95,0-25.79-4.99-25.83-26.28v-128.55c0-22.53,4.69-27.18,26.58-27.22h120.59v-76.55H16.78Zm148.64,242.2h241.22v-94.35h-241.22v94.35ZM16.22,432.13c0,14.75-.9,28.46.26,42.01,1.09,14.55,13.38,25.7,27.97,25.38,74.29.38,148.59.38,222.9,0,13.57,1.08,25.64-8.59,27.52-22.08,1.2-15.08,1.34-30.22.41-45.32H16.22Zm-.45-359.48h280.57v-17.8c.11-30.22-9.2-39.46-39.46-39.46H50.39c-16.36-2.73-31.84,8.31-34.58,24.67-.52,3.12-.55,6.29-.08,9.42v23.24m149.01,129.38h241.71v-19.56h-241.71v19.56Z"/>
        <path id="Path_2894" data-name="Path 2894" class="cls-3" d="m184.53,274.67v-14.38h90.37c3.94,10.32,1.61,15.02-10.66,14.57-26.02-.64-52.04-.19-79.71-.19"/>
        <path id="Path_2895" data-name="Path 2895" class="cls-3" d="m176.12,466.26c-.3,11.03-9.49,19.73-20.52,19.43-11.03-.3-19.73-9.49-19.43-20.52.3-11.03,9.49-19.73,20.52-19.43,11.03.3,19.73,9.49,19.43,20.52h0"/>
        <rect id="Rectangle_2586" data-name="Rectangle 2586" class="cls-3" x="110.76" y="37.99" width="90.71" height="13.7"/>
      </g>
    </g>
  </g>
</svg>