<?xml version="1.0" encoding="UTF-8"?>
<svg id="Layer_1" data-name="Layer 1" xmlns="http://www.w3.org/2000/svg" xmlns:xlink="http://www.w3.org/1999/xlink" viewBox="0 0 406.69 443.87">
  <defs>
    <style>
      .cls-1 {
        clip-path: url(#clippath);
      }

      .cls-2 {
        fill: none;
      }

      .cls-2, .cls-3 {
        stroke-width: 0px;
      }

      .cls-3 {
        fill: #4d4d4f;
      }
    </style>
    <clipPath id="clippath">
      <rect class="cls-2" width="406.5" height="443.87"/>
    </clipPath>
  </defs>
  <g id="Group_3810" data-name="Group 3810">
    <g class="cls-1">
      <g id="Group_3809" data-name="Group 3809">
        <path id="Path_2911" data-name="Path 2911" class="cls-3" d="m206.3,0c7.01,3.35,14.29,6.71,20.97,10.63,34.49,21.15,73.02,34.86,113.11,40.25,11.98,1.64,24.15,2.18,36.23,2.68,15.35-.61,28.28,11.33,28.89,26.68.01.33.02.66.02,1,4.69,62.38-4.82,125.01-27.81,183.19-26.8,71.25-78.01,130.69-144.51,167.73-5.43,2.99-11.07,5.6-16.57,8.42-8.19,4.31-17.98,4.31-26.17,0-46.65-21.93-87.02-55.24-117.41-96.88-31.42-43.08-53.08-92.48-63.47-144.78C4.57,175.5,1.61,151.68.74,127.74c-.15-1.56-.39-3.1-.74-4.63v-18.22c.6-8.32,1.34-16.77,1.74-24.96.54-14.17,11.83-25.58,26-26.27,12.68-.7,25.39-1.21,37.97-2.78,40.14-5.01,78.73-18.6,113.15-39.85,6.67-5.02,14.21-8.76,22.24-11.04h5.2Zm171.55,81.75c-2.01,0-3.72,0-5.43-.27-12.38-.97-24.82-.97-36.97-2.85-45.03-6.15-88.15-22.11-126.33-46.76-3.26-2.68-7.95-2.68-11.2,0-48.62,31.34-105,48.54-162.83,49.68-2.08,0-4.16.44-6.37.67-.34,7.68-.87,14.89-.94,22.07-.26,23.24,1.41,46.47,5,69.44,6.26,42.13,20.09,82.78,40.82,119.99,28.37,52.14,72.28,94.15,125.63,120.19,2.62,1.59,5.9,1.59,8.52,0,11.84-6.88,24.15-12.98,35.49-20.6,45.73-31.44,81.64-75.18,103.55-126.16,24.73-56.36,35.66-117.8,31.9-179.23,0-1.98-.54-3.96-.87-6.17"/>
        <path id="Path_2912" data-name="Path 2912" class="cls-3" d="m176.68,256.42l96.24-99.19c3.2-4.43,8.62-6.68,14.02-5.84,7.53,1.44,12.47,8.72,11.03,16.25-.31,1.61-.9,3.15-1.74,4.55-.95,1.48-2.08,2.84-3.35,4.06-34.75,35.78-69.53,71.63-104.33,107.55-8.86,9.12-15.46,9.16-24.29,0-16.73-17.15-33.44-34.33-50.15-51.53-3.78-3.27-5.79-8.13-5.43-13.12.34-5.37,3.93-9.99,9.06-11.64,4.99-1.95,10.66-.61,14.26,3.35,11.79,12.1,23.56,24.21,35.32,36.33,2.92,2.99,6,5.8,9.22,8.92"/>
      </g>
    </g>
  </g>
</svg>