<?xml version="1.0" encoding="UTF-8"?>
<svg id="Layer_1" data-name="Layer 1" xmlns="http://www.w3.org/2000/svg" viewBox="0 0 302.89 201.8">
  <defs>
    <style>
      .cls-1 {
        fill: #4d4d4d;
        stroke-width: 0px;
      }
    </style>
  </defs>
  <path id="Icon_awesome-road" data-name="Icon awesome-road" class="cls-1" d="m301.33,177.97L227.85,9.8c-2.47-5.87-8.18-9.72-14.55-9.8h-51.29l1.28,12.18c.2,2.31-1.51,4.35-3.82,4.55-.12.01-.24.02-.36.02h-15.33c-2.32,0-4.2-1.89-4.2-4.21,0-.12,0-.24.02-.36l1.3-12.18h-51.29c-6.38.07-12.11,3.92-14.58,9.8L1.56,177.97c-3.89,8.42-.23,18.4,8.19,22.29,1.99.92,4.15,1.44,6.34,1.54h103.49l5.41-51.34c.46-4.27,4.06-7.52,8.36-7.52h36.17c4.3,0,7.91,3.24,8.36,7.52l5.41,51.34h103.45c9.25-.35,16.48-8.13,16.13-17.39-.08-2.23-.61-4.42-1.55-6.44ZM136.94,37.4c.22-2.14,2.03-3.77,4.18-3.77h20.56c2.15,0,3.96,1.63,4.18,3.77l2.42,22.85c.37,3.46-2.14,6.57-5.61,6.93-.22.02-.43.03-.65.03h-21.22c-3.48,0-6.3-2.83-6.29-6.32,0-.22.01-.44.03-.65l2.42-22.85h-.02Zm29.04,88.74h-29.06c-4.64,0-8.41-3.76-8.41-8.41,0-.3.02-.6.05-.89l2.67-25.13c.46-4.27,4.06-7.52,8.36-7.52h23.71c4.3,0,7.91,3.24,8.36,7.52l2.67,25.13c.49,4.62-2.85,8.76-7.47,9.25-.3.03-.59.05-.89.05Z"/>
</svg>