<?xml version="1.0" encoding="UTF-8"?>
<svg id="Layer_1" data-name="Layer 1" xmlns="http://www.w3.org/2000/svg" viewBox="0 0 368.22 368.2">
  <defs>
    <style>
      .cls-1 {
        stroke-width: 0px;
      }
    </style>
  </defs>
  <g id="Group_2807" data-name="Group 2807">
    <g id="Group_2806" data-name="Group 2806">
      <path id="Path_2059" data-name="Path 2059" class="cls-1" d="m358.72,271.68l-45.75-45.77c-12.81-12.22-32.96-12.22-45.77,0l-7.63,7.63,91.54,91.54,7.63-7.63c12.63-12.62,12.64-33.1.02-45.73-.01-.01-.02-.02-.03-.04Z"/>
    </g>
  </g>
  <g id="Group_2809" data-name="Group 2809">
    <g id="Group_2808" data-name="Group 2808">
      <path id="Path_2060" data-name="Path 2060" class="cls-1" d="m243.89,248.38c-9.6,7.67-23.41,6.95-32.17-1.66l-90.49-90.54c-8.61-8.76-9.32-22.57-1.66-32.17L28.26,32.69c-39.73,46.09-37.29,115,5.6,158.16l143.19,143.24c43.02,43.22,112.19,45.67,158.16,5.6l-91.32-91.32Z"/>
    </g>
  </g>
  <g id="Group_2811" data-name="Group 2811">
    <g id="Group_2810" data-name="Group 2810">
      <path id="Path_2061" data-name="Path 2061" class="cls-1" d="m142.04,54.93L96.29,9.16c-12.81-12.22-32.96-12.22-45.77,0l-7.63,7.63,91.55,91.54,7.63-7.63c12.63-12.63,12.63-33.1,0-45.73-.01-.01-.02-.02-.04-.04Z"/>
    </g>
  </g>
</svg>