<?xml version="1.0" encoding="UTF-8"?>
<svg id="Layer_1" data-name="Layer 1" xmlns="http://www.w3.org/2000/svg" viewBox="0 0 399.61 402.02">
  <defs>
    <style>
      .cls-1 {
        stroke-width: 0px;
      }
    </style>
  </defs>
  <path id="Path_15990" data-name="Path 15990" class="cls-1" d="m293.16,241.39c-4.02-2-30.1-14.06-34.13-16.06-3.97-2.37-9.07-1.52-12.06,2-4.02,4.02-12.06,16.06-16.06,20.08-2,4.02-6.02,4.02-10.04,2-14.47-6.07-27.99-14.19-40.15-24.1-10.44-10.45-19.86-21.88-28.11-34.13-1.53-3.43-.73-7.46,2-10.04,2-2,4.02-6.02,8.04-8.04,2.12-2.21,3.52-5.02,4.02-8.04,2.01-2.3,2.01-5.74,0-8.04-6.02-11.74-11.38-23.81-16.06-36.15-2-14.06-6.02-14.06-10.04-14.06h-10.06c-4.53.75-8.73,2.85-12.06,6.02-11.59,10.96-18.13,26.22-18.08,42.17,1.86,18.9,8.79,36.94,20.08,52.21,20.99,31.86,50.11,57.53,84.34,74.36,9.03,4.23,18.45,7.59,28.11,10.04,10.3,3.72,21.45,4.42,32.13,2,14.26-2.92,26.65-11.67,34.15-24.15,3.63-7.51,4.34-16.09,2-24.1l-8.04-4.02m50.21-182.71c-78.15-78.18-204.87-78.2-283.05-.06C-3.56,122.45-16.75,221.18,28.11,299.57L0,402.02l106.42-28.1c96.26,52.34,216.72,16.74,269.06-79.52,15.88-29.21,24.17-61.94,24.1-95.18.88-52.5-19.38-103.15-56.23-140.55m-54.21,281.11c-26.45,16.73-57.04,25.77-88.34,26.1-29.52-.16-58.52-7.74-84.34-22.04l-6.02-4.02-62.25,16.06,16.06-60.19-4.02-6.02C11.89,210.81,36.08,107.75,114.46,58.65c76.08-48.47,177.05-26.08,225.52,50.01.47.73.92,1.46,1.38,2.2,48.85,77.38,25.73,179.71-51.65,228.56-.19.12-.37.24-.56.35"/>
</svg>