<?xml version="1.0" encoding="UTF-8"?>
<svg id="Layer_1" data-name="Layer 1" xmlns="http://www.w3.org/2000/svg" viewBox="0 0 812.84 273.45">
  <defs>
    <style>
      .cls-1 {
        stroke: #7b8489;
      }

      .cls-1, .cls-2, .cls-3, .cls-4 {
        fill: none;
        stroke-width: 2.2px;
      }

      .cls-2 {
        stroke: #ffdf8b;
      }

      .cls-3 {
        stroke: #fadb8a;
      }

      .cls-4 {
        stroke: #806716;
      }

      .cls-5, .cls-6, .cls-7, .cls-8 {
        stroke-width: 0px;
      }

      .cls-6 {
        fill: #febe17;
      }

      .cls-7 {
        fill: #f5f7fc;
      }

      .cls-8 {
        fill: #011015;
      }
    </style>
  </defs>
  <g id="Group_11964" data-name="Group 11964">
    <path id="Path_15967" data-name="Path 15967" class="cls-2" d="m361.1,99.66l12.59-20.33"/>
    <path id="Path_15968" data-name="Path 15968" class="cls-4" d="m70.92,147.63c-1.61,10.64-3.15,21.69-4.63,33.13-1.09,7.01-.44,14.18,1.88,20.88,4.53,11.9,8.67,23.63,12.39,35.2,2.09,6.52,4.24,6.52,6.47,0,3.47-10.23,7.15-20.42,11.05-30.58,2.78-7.51,3.87-15.55,3.18-23.53-.79-10.97-2.16-21.89-4.1-32.72"/>
    <path id="Path_15969" data-name="Path 15969" class="cls-3" d="m97.16,150.08c6.07-5.34,12.41-10.36,19-15.04,6.72-4.41,12.58-9.99,17.31-16.49,14.49-19.45,14.97-45.96,1.21-65.93-6.28-10.65-16.01-18.84-27.59-23.19-30.79-12.71-66.05,1.95-78.75,32.74-12.04,29.17.45,62.69,28.64,76.88,4.63,2.64,9.29,5.51,13.98,8.59"/>
    <path id="Path_15970" data-name="Path 15970" class="cls-1" d="m97.16,150.08c-2.51-17.04-4.76-33.86-6.75-50.44-.06-2.32-.79-4.57-2.12-6.47-2.07-2.1-5.27-2.58-7.86-1.19-1.25.46-2.14,1.57-2.31,2.9l-7.19,52.71"/>
    <path id="Path_15971" data-name="Path 15971" class="cls-1" d="m94.26,69.01l-20.55-.1c-1.04.02-1.88.85-1.93,1.88v.87c0,7.56,3.82,13.71,8.64,13.74h6.94c4.81,0,8.77-6.05,8.83-13.6v-.81c.03-1.07-.82-1.96-1.88-1.98-.02,0-.03,0-.05,0"/>
  </g>
  <path id="Path_15972" data-name="Path 15972" class="cls-6" d="m81.68,0h5.3c30.57,1.46,57.8,19.76,70.7,47.51,19.34,40.08,8.54,80.68-13.07,117.14-21.74,36.75-40.48,72.08-56.23,106-1.19,2.46-4.16,3.49-6.62,2.3-1-.49-1.81-1.3-2.3-2.3-16.14-34.76-34.12-68.64-53.87-101.48C3.6,132.52-10.63,89.46,10.06,48.37,23.12,20.22,50.69,1.61,81.68,0Zm-10.76,147.62c-1.61,10.64-3.15,21.69-4.63,33.13-1.09,7.01-.44,14.18,1.88,20.88,4.53,11.9,8.67,23.63,12.39,35.2,2.09,6.52,4.24,6.52,6.47,0,3.47-10.23,7.15-20.42,11.05-30.58,2.78-7.51,3.87-15.55,3.18-23.53-.79-10.97-2.16-21.89-4.1-32.72,6.07-5.34,12.41-10.36,19-15.04,6.72-4.41,12.58-9.99,17.31-16.49,14.49-19.45,14.97-45.96,1.21-65.93-6.28-10.65-16.01-18.84-27.59-23.19-30.45-13.49-66.08.26-79.57,30.71-13.27,29.95-.2,65.02,29.44,78.99,4.57,2.66,9.22,5.52,13.94,8.58Z"/>
  <path id="Path_15973" data-name="Path 15973" class="cls-5" d="m265.85,90.08l-32.02-.1c-2.3-.09-4.42,1.23-5.35,3.33l-6.65,13.02c-1.01,2.35-3.53,3.68-6.04,3.18-6.21-.9-12.52-.84-18.71.19-3.76.61-4.71-.74-2.85-4.06l46.53-82.3c1.76-3.1,5.04-5.02,8.6-5.03,3.55-.02,6.82,1.88,8.58,4.96l46.53,81.65c1.74,3.02.86,4.5-2.65,4.43l-19.2-.39c-2.72.07-5.22-1.49-6.37-3.97l-6.32-12.44c-.72-1.59-2.35-2.58-4.1-2.48Zm-6.22-17.03c.43.03.8-.29.83-.72.01-.15-.02-.31-.1-.44l-8.64-15.23c-1.64-2.93-3.23-2.93-4.77,0l-7.24,13.69c-.81,1.54-.36,2.33,1.35,2.36l18.57.34Z"/>
  <path id="Path_15974" data-name="Path 15974" class="cls-7" d="m97.16,150.08c-2.51-17.04-4.76-33.86-6.75-50.44-.06-2.32-.79-4.57-2.12-6.47-2.07-2.09-5.27-2.56-7.86-1.16-1.25.46-2.14,1.57-2.31,2.9l-7.19,52.71c-4.73-3.05-9.39-5.92-13.98-8.59-29.77-14.93-41.8-51.17-26.87-80.94,14.18-28.28,47.81-40.79,77.03-28.67,11.57,4.36,21.31,12.54,27.59,23.19,13.76,19.97,13.28,46.48-1.21,65.93-4.73,6.49-10.6,12.08-17.31,16.49-6.59,4.68-12.93,9.7-19,15.04Zm-2.9-81.06l-20.55-.1c-1.04.02-1.88.85-1.93,1.88v.87c0,7.56,3.82,13.71,8.64,13.74h6.94c4.81,0,8.77-6.05,8.83-13.6v-.82c.03-1.07-.82-1.96-1.88-1.98-.02,0-.03,0-.05,0h0Z"/>
  <path id="Path_15975" data-name="Path 15975" class="cls-6" d="m361.11,99.63l12.59-20.3,21.27-38.05c.63-1.25,1.93-2.02,3.33-1.98l24.12-.34c.27,0,.53.14.67.38.14.22.14.51,0,.73l-37.81,67.18c-.7,1.34-2.11,2.16-3.62,2.12h-12.25c-1.69,0-3.29-.76-4.34-2.07-1.92-2.2-3.28-4.83-3.97-7.67Z"/>
  <path id="Path_15976" data-name="Path 15976" class="cls-5" d="m429.25,89.37l.91,1.4c1.6,2.64,4.54,4.17,7.62,3.97l22.57-.44c1.39-.25,2.72.68,2.96,2.08.05.27.05.55.01.82v9.74c0,1.98-.99,2.88-2.97,2.7-12.54-1.21-25.56,1.45-37.23-4.29-12.85-6.55-17.96-22.28-11.4-35.13,1.99-3.91,4.93-7.25,8.56-9.72,9.5-7,21.59-9.49,33.08-6.8,9.32,1.3,17.35,7.22,21.37,15.73.32.66.98,1.98,1.98,3.97,4.12,8.13,1.61,12.13-7.53,12.01l-37.42-.54c-1.6-.02-2.91,1.26-2.93,2.86,0,.58.16,1.14.47,1.62l-.04.04Zm2.22-13.74l24.02-.19c.48,0,.87-.39.87-.87v-.54c-.1-1.99-1.19-3.79-2.9-4.81-2.07-1.34-4.48-2.03-6.94-1.98l-6.08.1c-5.41,0-9.8,3.1-9.79,6.85v.54c-.02.47.34.87.81.9Z"/>
  <path id="Path_15977" data-name="Path 15977" class="cls-5" d="m511.81,88.6c-11.82-2.8-21.81-.39-27.92-13.02-4.68-9.55,2.97-17.46,11.38-20.45,13.58-5.85,29.41-1.57,38.2,10.32.79.96.99,2.28.5,3.42-.47,1.15-1.56,1.92-2.81,1.98-7.47.42-14.92-1.18-21.56-4.63-1.7-.98-3.82-.87-5.4.29-1.93,1.24-3,3.46-2.8,5.74.04,1.24,1.03,2.23,2.27,2.27,14.5.52,24.02,4.55,28.55,12.11,6.47,10.85-5.3,20.6-15,22.81-12.82,4.07-26.81-.49-34.77-11.33-1.1-1.44-.83-3.5.61-4.6.47-.36,1.03-.58,1.61-.65,6.66-1.02,13.48.24,19.34,3.57,1.21.69,2.57,1.09,3.97,1.16,4.05.16,6.42-.98,7.09-3.42.89-2,0-4.35-2.01-5.24-.39-.17-.81-.28-1.23-.33Z"/>
  <path id="Path_15978" data-name="Path 15978" class="cls-5" d="m661.6,70.51c-1.15-.42-2.4-.45-3.57-.1-5.88,1.19-9.92,6.61-9.4,12.58l.34,23.24c.21,1.3-.68,2.53-1.98,2.74-.22.04-.45.04-.67.01l-17.41.49c-1.37.26-2.7-.64-2.96-2.01-.05-.28-.06-.56-.02-.83v-49.67c0-2.47,1.22-3.58,3.67-3.33,8.17,1.06,16.45.97,24.59-.29,8.62-1.63,17.54.22,24.79,5.16,1.18.86,2.78.86,3.97,0,7.96-5.58,18.01-7.26,27.35-4.58,28.41,7.33,22.72,31.44,22.96,53.2.18,1.19-.64,2.29-1.83,2.47-.23.03-.45.03-.68,0l-16.69-.53c-1.51-.05-2.7-1.29-2.7-2.8l.19-24.45c.66-5.65-3.39-10.77-9.05-11.42-.26-.03-.53-.05-.79-.06-1.02-.16-2.07-.04-3.03.34-4.78,1.6-7.91,6.2-7.62,11.23v24.64c.21,1.39-.74,2.68-2.13,2.89-.24.04-.48.04-.72,0h-15.43c-1.66.25-3.21-.89-3.46-2.56-.04-.29-.05-.58,0-.87l.15-24.4c.39-5.1-2.91-9.76-7.85-11.09Z"/>
  <path id="Path_15979" data-name="Path 15979" class="cls-5" d="m812.84,75.18v9.74l-46.92-.24c-2.57,0-3.36,1.17-2.36,3.52l.82,1.88c1.19,2.8,3.95,4.61,6.99,4.58l24.25-.1c1.34-.2,2.59.72,2.79,2.05.03.23.04.46,0,.69v9.11c0,1.45-1.16,2.63-2.61,2.66-16.1.34-44.27,3.33-50.57-17.6-12.4-40.94,52.94-53.96,67.6-16.3Zm-46.49.29l24.69.1c.27,0,.49-.22.49-.49v-.24c-.03-2.07-.99-4.02-2.61-5.31-1.8-1.46-4.04-2.24-6.36-2.21h-7.73c-4.49-.35-8.45,2.94-8.92,7.43v.24c0,.25.19.47.45.49h0Z"/>
  <path id="Path_15980" data-name="Path 15980" class="cls-5" d="m373.69,79.33l-12.58,20.31c-.69-2.77-2.48-5.13-4.96-6.55-.7-.27-1.49-.21-2.15.15-.67.36-1.15.99-1.33,1.74-.79,3.67-2.37,7.13-4.63,10.12-4.47,5.74-12.74,6.77-18.48,2.3-1.35-1.05-2.48-2.36-3.33-3.84l-27.82-48.71c-.18-.29-.18-.65,0-.93.19-.3.51-.47.86-.47l22.95.62c1.01-.01,1.95.55,2.41,1.45l10.56,19.67c.67,1.21,2.2,1.65,3.41.98.41-.23.76-.57.98-.98l11.18-19.87c1.61-2.87,5.23-3.89,8.1-2.28,1.01.56,1.83,1.41,2.36,2.43l12.47,23.87Z"/>
  <path id="Path_15981" data-name="Path 15981" class="cls-5" d="m612.07,81.58c.06,15.92-15.49,28.89-34.71,28.96-19.22.07-34.86-12.79-34.92-28.76s15.49-28.89,34.71-28.96,34.86,12.79,34.92,28.76Zm-21.81.24c-1.16-7.22-7.95-12.14-15.18-10.98-5.6.9-10,5.26-10.96,10.84,1.16,7.22,7.95,12.14,15.18,10.98,5.6-.9,10-5.26,10.96-10.84Z"/>
  <path id="Path_15982" data-name="Path 15982" class="cls-8" d="m94.26,69.01c1.07,0,1.93.87,1.93,1.93,0,.02,0,.03,0,.05v.87c-.07,7.56-3.97,13.63-8.83,13.6h-6.94c-4.82,0-8.68-6.19-8.64-13.74v-.93c.05-1.04.9-1.86,1.93-1.88l20.54.1Z"/>
  <path id="Path_15983" data-name="Path 15983" class="cls-8" d="m97.17,150.07c1.93,10.83,3.3,21.75,4.1,32.72.68,7.98-.4,16.02-3.18,23.53-3.89,10.16-7.57,20.35-11.05,30.58-2.22,6.49-4.38,6.49-6.47,0-3.73-11.54-7.86-23.28-12.39-35.2-2.33-6.7-2.97-13.87-1.88-20.88,1.48-11.44,3.02-22.49,4.63-33.13l7.19-52.71c.13-1.36,1.03-2.53,2.32-3,2.59-1.4,5.79-.93,7.86,1.16,1.33,1.9,2.07,4.15,2.12,6.47,1.99,16.61,4.24,33.43,6.75,50.47Z"/>
  <path id="Path_15984" data-name="Path 15984" class="cls-5" d="m619.69,174.38c.52.93,1.7,1.26,2.63.74.31-.17.56-.43.74-.74l26.14-46.87c.55-1.06,1.65-1.71,2.85-1.69l24.79-.34c.55-.03,1.02.38,1.05.93.01.2-.04.4-.14.57l-47.36,84.28c-2.75,4.9-8.95,6.65-13.85,3.9-1.63-.92-2.98-2.27-3.9-3.9l-47.84-84.73c-.21-.4-.06-.9.34-1.11.12-.06.25-.1.38-.1l25.46.58c1.28-.01,2.45.7,3.03,1.83l25.67,46.64Z"/>
  <path id="Path_15985" data-name="Path 15985" class="cls-5" d="m192.61,127.79c0-1.3,1.06-2.36,2.36-2.36l36.51.19c30.74.16,55.63,20.22,55.53,44.8v1.16c-.13,24.59-25.2,44.39-55.99,44.22l-36.53-.24c-1.3,0-2.36-1.06-2.36-2.36l.49-85.41Zm28.02,24.16l.1,38.38c0,1.36,1.1,2.46,2.46,2.46h6.65c16.05,0,29.05-9.34,29.03-20.82v-1.83c0-11.46-13.07-20.72-29.13-20.68h-6.65c-1.36,0-2.46,1.09-2.47,2.45,0,.02,0,.03,0,.05h0Z"/>
  <path id="Path_15986" data-name="Path 15986" class="cls-5" d="m415.35,186.5l15.73,28.26c.21.43.02.96-.41,1.16-.11.05-.24.08-.36.09l-28.55-.39c-.92.03-1.76-.48-2.17-1.3l-11.28-20.11c-.88-1.68-2.64-2.7-4.53-2.65h-9.99c-1.35-.19-2.6.74-2.8,2.09-.03.23-.03.47,0,.71v20.06c0,.9-.73,1.64-1.64,1.64h0l-25.03-.34c-.85.11-1.63-.5-1.74-1.35-.02-.13-.02-.25,0-.38v-85.22c-.24-1.52.8-2.95,2.32-3.18.28-.04.58-.04.86,0,15.72.26,31.17.48,46.35.67,29.66.44,49.97,33.33,23.92,56.08-1.3.98-1.61,2.81-.68,4.15Zm-44.31-38.5v21.12c0,1.6,1.3,2.9,2.9,2.9h11.52c10.73,0,19.43-5.95,19.43-13.26v-.39c0-7.33-8.71-13.26-19.43-13.26h-11.53c-1.59,0-2.88,1.29-2.89,2.89Z"/>
  <rect id="Rectangle_4503" data-name="Rectangle 4503" class="cls-5" x="484.85" y="125.72" width="28.16" height="89.99" rx="4.26" ry="4.26"/>
  <path id="Path_15987" data-name="Path 15987" class="cls-5" d="m752.31,146.37l-.72,12.44c-.05.8.55,1.49,1.35,1.54.03,0,.07,0,.1,0l49.77-.34c.8,0,1.45.65,1.45,1.45v16.86c0,.8-.65,1.45-1.45,1.45l-49.43-.24c-.8,0-1.45.65-1.45,1.45l.1,14.28c0,.8.65,1.45,1.45,1.45l49.48-.34c.8,0,1.45.65,1.45,1.45v16.4c0,.8-.65,1.45-1.45,1.45h-77.89c-.8,0-1.45-.65-1.45-1.45v-86.9c0-.8.65-1.45,1.45-1.45l77.79.1c.8,0,1.45.65,1.45,1.45v16.59c0,.8-.65,1.45-1.45,1.45l-49.14-.44c-.74.02-1.35.61-1.4,1.35Z"/>
</svg>